<?xml version="1.0" standalone="no"?>
<!DOCTYPE svg PUBLIC "-//W3C//DTD SVG 20010904//EN"
 "http://www.w3.org/TR/2001/REC-SVG-20010904/DTD/svg10.dtd">
<svg version="1.0" xmlns="http://www.w3.org/2000/svg"
 width="512.000000pt" height="512.000000pt" viewBox="0 0 512.000000 512.000000"
 preserveAspectRatio="xMidYMid meet">

<g transform="translate(0.000000,512.000000) scale(0.100000,-0.100000)"
fill="#ffd700" stroke="none">
<path d="M1226 4340 c-102 -90 -143 -291 -96 -474 20 -78 76 -204 126 -285 23
-38 24 -43 8 -37 -38 15 -171 19 -225 6 -129 -30 -253 -124 -294 -223 -12 -29
-11 -38 5 -75 28 -63 113 -140 199 -181 63 -30 88 -36 161 -39 47 -2 103 1
125 7 21 6 40 9 41 8 1 -1 -4 -31 -12 -67 -7 -36 -17 -123 -20 -195 l-7 -130
-41 -45 c-85 -91 -145 -198 -192 -340 -26 -80 -28 -96 -28 -255 -1 -193 9
-243 75 -383 99 -214 273 -377 493 -466 65 -27 103 -50 149 -92 81 -73 262
-194 358 -238 144 -67 202 -78 421 -83 208 -5 276 1 389 38 144 46 335 161
481 289 33 29 82 61 110 72 146 55 260 130 364 241 239 251 310 619 182 951
-32 83 -126 232 -177 280 -28 27 -31 35 -31 95 0 87 -18 229 -39 313 l-17 66
36 -18 c122 -62 277 -67 394 -12 108 50 177 115 211 195 12 29 11 38 -4 73
-10 22 -41 63 -68 90 -116 116 -279 160 -438 118 -56 -14 -86 -28 -148 -68
-21 -14 -16 -3 27 63 66 100 117 204 148 301 30 97 33 267 5 346 -57 163 -165
229 -252 152 -43 -37 -75 -98 -140 -263 -89 -226 -167 -345 -226 -345 -11 0
-51 18 -87 39 -85 51 -196 95 -309 123 -81 21 -110 23 -368 23 -233 0 -292 -3
-352 -18 -111 -26 -232 -73 -318 -122 -43 -25 -89 -45 -102 -45 -57 0 -135
124 -227 364 -83 214 -121 266 -204 274 -44 4 -52 1 -86 -28z m149 -325 c69
-179 124 -282 184 -347 l53 -58 -42 -48 c-24 -26 -47 -51 -51 -56 -12 -14
-127 151 -179 258 -26 56 -54 125 -60 154 -15 63 -9 195 10 235 l14 28 13 -24
c7 -14 33 -78 58 -142z m2379 0 c0 -89 -4 -109 -32 -182 -33 -81 -120 -227
-177 -298 l-31 -37 -48 56 -48 56 49 54 c60 65 106 151 179 333 31 76 61 149
66 163 l10 25 17 -35 c11 -25 16 -64 15 -135z m-869 -289 c403 -122 685 -451
733 -856 5 -41 8 -76 7 -78 -2 -2 -29 10 -61 26 -98 50 -215 81 -343 93 -78 7
-357 9 -798 6 -657 -4 -681 -4 -762 -26 -46 -12 -122 -39 -169 -61 -47 -22
-87 -38 -89 -36 -9 9 20 174 44 250 116 372 422 638 813 710 14 2 140 3 280 2
246 -2 258 -3 345 -30z m-1631 -355 c23 -10 56 -30 74 -46 l33 -28 -23 -24
c-62 -66 -185 -97 -279 -70 -52 16 -139 70 -139 87 0 26 89 84 155 101 43 11
132 1 179 -20z m2849 -1 c44 -21 97 -64 97 -80 0 -17 -87 -71 -139 -87 -94
-27 -217 4 -279 70 l-23 24 32 27 c90 76 211 94 312 46z m-760 -638 c457 -127
686 -622 483 -1047 -93 -196 -259 -333 -481 -397 l-80 -23 -755 0 -755 0 -90
28 c-261 82 -450 276 -515 532 -27 105 -27 264 -1 367 77 300 336 524 645 558
39 4 386 7 771 6 684 -2 702 -3 778 -24z m-243 -1636 c0 -9 -131 -88 -194
-116 -124 -57 -199 -70 -391 -70 -139 0 -187 4 -251 20 -84 21 -259 103 -309
144 l-30 25 588 1 c323 0 587 -2 587 -4z"/>
<path d="M1877 3350 c-100 -39 -162 -114 -174 -209 -7 -61 12 -96 56 -106 41
-9 89 18 96 53 19 92 55 122 147 122 98 0 158 -39 158 -103 0 -33 40 -77 69
-77 61 0 98 51 86 117 -17 100 -89 178 -188 208 -71 21 -190 19 -250 -5z"/>
<path d="M2887 3350 c-103 -40 -164 -115 -174 -214 -5 -49 -3 -57 20 -80 28
-28 53 -32 91 -15 23 11 32 26 52 94 14 46 66 75 136 75 98 0 158 -39 158
-103 0 -33 40 -77 69 -77 68 0 101 53 82 133 -22 94 -88 163 -187 193 -67 20
-188 17 -247 -6z"/>
<path d="M1804 2450 c-62 -13 -139 -55 -185 -101 -92 -92 -125 -249 -78 -374
31 -83 121 -173 204 -204 85 -32 207 -27 283 13 220 113 266 396 91 567 -84
83 -207 122 -315 99z m157 -176 c76 -39 119 -132 98 -216 -21 -91 -94 -148
-188 -148 -112 0 -191 78 -191 190 0 146 152 240 281 174z"/>
<path d="M3090 2449 c-112 -23 -208 -100 -258 -207 -22 -47 -27 -71 -27 -142
0 -77 3 -92 33 -152 36 -75 95 -133 170 -169 71 -34 198 -38 274 -9 75 28 155
101 193 177 27 52 30 68 30 153 0 83 -3 102 -27 150 -71 145 -237 230 -388
199z m160 -178 c53 -27 92 -89 98 -155 11 -134 -102 -228 -243 -202 -71 14
-144 107 -145 187 0 19 12 58 26 87 50 100 161 135 264 83z"/>
</g>
</svg>
