<svg width="211" height="113" viewBox="0 0 211 113" fill="none" xmlns="http://www.w3.org/2000/svg">
<rect width="211" height="113" fill="#114E60"/>
<g clip-path="url(#clip0_4_3253)">
<path fill-rule="evenodd" clip-rule="evenodd" d="M45.9041 63.0221C41.0309 74.1166 36.5529 85.5525 33.1892 94.8365C32.7866 95.9474 31.5595 96.5218 30.4483 96.119C29.3371 95.7167 28.7627 94.4893 29.1653 93.3785C32.4116 84.4188 36.7048 73.4218 41.4094 62.6185C34.0381 61.908 26.2348 60.9193 18 59.6036L18.1914 55.3555C26.2499 54.8036 36.84 53.3587 46.7969 50.7594C49.0779 45.9632 51.3965 41.387 53.6893 37.2525C58.1805 29.1542 62.7535 22.4074 66.932 19.1862C69.0135 17.5816 71.5067 16.465 74.0499 17.2655C76.5537 18.0535 78.1986 20.4237 79.3142 23.4657C81.6862 29.9345 80.3043 35.5568 76.5327 40.1657C72.8734 44.6381 67.0247 48.1047 60.4482 50.7926C57.1059 52.1587 53.5135 53.3482 49.8224 54.3759C49.1274 55.8596 48.4363 57.3624 47.751 58.8776C66.3956 60.3433 81.9929 59.9723 94.5378 58.6787C113.19 56.7552 124.956 52.807 129.977 49.9276C131.002 49.3396 132.31 49.6941 132.897 50.7193C133.486 51.7445 133.131 53.0522 132.106 53.6402C126.347 56.9429 113.908 60.9838 94.9772 62.936C81.8194 64.2929 65.4583 64.648 45.9041 63.0221ZM43.2316 58.4915C43.644 57.5706 44.0588 56.6532 44.4757 55.7408C41.3132 56.4796 38.1319 57.1084 35.0224 57.6362C37.8185 57.9603 40.5549 58.2446 43.2316 58.4915ZM52.3168 49.1715C54.5685 48.4585 56.7528 47.6795 58.8289 46.8309C65.1478 44.2482 70.2247 41.1167 73.2206 37.4553C76.1048 33.9305 77.1086 29.8834 75.2959 24.9391C74.3191 22.2746 73.3243 21.524 72.765 21.348C72.2452 21.1843 71.2514 21.2604 69.5451 22.5758C66.1474 25.195 61.9406 31.1987 57.4322 39.3282C55.7353 42.3881 54.0211 45.7006 52.3168 49.1715Z" fill="#F4EEE8"/>
<path d="M61.4188 92.0712C61.2702 92.3589 61.082 92.6361 60.8541 92.9034C60.6362 93.1711 60.3835 93.4089 60.0962 93.6167C59.8188 93.815 59.5216 93.9786 59.2046 94.1075C58.8876 94.2264 58.5606 94.2858 58.2238 94.2858C57.669 94.2858 57.1835 94.1817 56.7674 93.9734C56.3613 93.7656 56.0145 93.4883 55.7272 93.1412C55.4498 92.7845 55.2417 92.3784 55.103 91.9228C54.9643 91.4673 54.895 90.9865 54.895 90.4815V84.7302C54.7563 85.3641 54.5977 86.048 54.4194 86.7808C54.2411 87.5041 54.0231 88.2274 53.7655 88.9507C53.508 89.664 53.2058 90.3526 52.8591 91.0164C52.5123 91.6798 52.1011 92.2695 51.6256 92.7845C51.16 93.29 50.625 93.6961 50.0206 94.0033C49.4163 94.3006 48.7278 94.4489 47.955 94.4489C47.0138 94.4489 46.1717 94.2706 45.4287 93.9139C44.6857 93.5573 44.0516 93.067 43.5265 92.4431C43.0113 91.8187 42.615 91.0806 42.3377 90.2285C42.0702 89.3668 41.9364 88.4357 41.9364 87.4347C41.9364 86.2458 42.1247 85.0569 42.5011 83.8681C42.8776 82.6697 43.3928 81.5203 44.0466 80.4204C44.7104 79.3209 45.4931 78.3004 46.3946 77.3593C47.3061 76.4182 48.2968 75.6008 49.3668 74.9074C50.4367 74.2136 51.5612 73.6739 52.7402 73.2872C53.929 72.9011 55.1278 72.7175 56.3365 72.7375H56.5148V73.4061C55.4746 73.4561 54.4739 73.6838 53.5129 74.09C52.5519 74.4861 51.6504 75.0111 50.8083 75.665C49.9761 76.3093 49.2132 77.0569 48.5197 77.909C47.8262 78.7612 47.2318 79.6676 46.7364 80.6287C46.251 81.5898 45.8696 82.5803 45.5921 83.6008C45.3246 84.6213 45.1909 85.6266 45.1909 86.6177C45.1909 87.0038 45.2157 87.4199 45.2652 87.866C45.3148 88.3016 45.399 88.7424 45.5179 89.1885C45.6367 89.6245 45.7903 90.0454 45.9785 90.4515C46.1668 90.8476 46.3996 91.2043 46.677 91.5215C46.9643 91.8287 47.2962 92.0764 47.6726 92.2647C48.0491 92.4431 48.4801 92.532 48.9656 92.532C49.55 92.532 50.0801 92.3537 50.5556 91.997C51.0312 91.6404 51.4622 91.1601 51.8485 90.5556C52.2349 89.9512 52.5767 89.2479 52.8739 88.4452C53.1811 87.6429 53.4485 86.796 53.6764 85.9044C53.9043 85.0127 54.0925 84.1059 54.2411 83.1847C54.3996 82.2536 54.5235 81.362 54.6126 80.5098C54.7117 79.6576 54.781 78.8701 54.8207 78.1468C54.8702 77.4135 54.895 76.7996 54.895 76.3041L57.9712 75.1747V90.9717C57.9712 91.17 57.9909 91.3679 58.0306 91.5662C58.0702 91.7645 58.1395 91.9476 58.2387 92.1159C58.3377 92.2743 58.4615 92.4031 58.6101 92.5025C58.7687 92.6014 58.9619 92.6509 59.1897 92.6509C59.5365 92.6509 59.8634 92.5467 60.1705 92.3389C60.4777 92.1306 60.7303 91.8981 60.9284 91.6404L61.4188 92.0712Z" fill="white"/>
<path d="M68.1062 92.3684C67.9873 92.6262 67.8337 92.8687 67.6454 93.0969C67.467 93.3247 67.264 93.5278 67.0362 93.7061C66.8084 93.8844 66.5559 94.0233 66.2782 94.1222C66.0109 94.2311 65.7337 94.2858 65.4462 94.2858C64.6734 94.2858 64.1087 94.0728 63.752 93.6467C63.4053 93.2106 63.2319 92.6214 63.2319 91.8781V73.748L65.9662 72.7969V91.9523C65.9662 92.1506 66.0109 92.3337 66.0998 92.5025C66.1892 92.6609 66.3476 92.7403 66.5754 92.7403C66.8036 92.7403 67.0167 92.6509 67.2145 92.4726C67.4228 92.2842 67.5859 92.1012 67.7048 91.9228L68.1062 92.3684Z" fill="white"/>
<path d="M75.0909 92.3684C74.972 92.6262 74.8184 92.8687 74.6301 93.0969C74.4517 93.3247 74.2487 93.5278 74.0209 93.7061C73.7931 93.8844 73.5401 94.0233 73.2629 94.1222C72.9952 94.2311 72.7179 94.2858 72.4307 94.2858C71.6579 94.2858 71.093 94.0728 70.7363 93.6467C70.3897 93.2106 70.2166 92.6214 70.2166 91.8781V73.748L72.9509 72.7969V91.9523C72.9509 92.1506 72.9952 92.3337 73.0846 92.5025C73.1735 92.6609 73.3323 92.7403 73.5601 92.7403C73.7879 92.7403 74.0009 92.6509 74.1992 92.4726C74.407 92.2842 74.5706 92.1012 74.6895 91.9228L75.0909 92.3684Z" fill="white"/>
<path d="M81.4661 94.4489C80.7328 94.4489 80.0442 94.3205 79.4003 94.0628C78.7664 93.795 78.2114 93.4289 77.7359 92.9628C77.2703 92.4973 76.8989 91.9523 76.6212 91.3284C76.354 90.6945 76.2203 90.0059 76.2203 89.2626C76.2203 88.4204 76.3587 87.6329 76.6364 86.8997C76.9137 86.1569 77.2951 85.4882 77.7806 84.8938C78.2761 84.2994 78.8553 83.7839 79.5192 83.3483C80.193 82.9122 80.9211 82.5703 81.7038 82.3226L82.1347 82.8428C81.6891 83.17 81.273 83.5461 80.8864 83.9722C80.5002 84.3883 80.1631 84.8439 79.8758 85.3394C79.5886 85.8249 79.3608 86.3399 79.1925 86.8849C79.0241 87.4199 78.9395 87.9696 78.9395 88.5346C78.9395 89.0101 79.0089 89.5104 79.1478 90.0354C79.2866 90.5604 79.4945 91.0412 79.7717 91.4768C80.0494 91.9128 80.3961 92.2743 80.8122 92.562C81.2383 92.8392 81.7286 92.9781 82.2835 92.9781C82.7786 92.9781 83.2046 92.8887 83.5613 92.7103C83.9279 92.532 84.2299 92.2895 84.4677 91.9823C84.7055 91.6751 84.8838 91.3184 85.0027 90.9123C85.1216 90.4962 85.181 90.0601 85.181 89.6046C85.181 89.0696 85.0773 88.5246 84.869 87.9696C84.6612 87.4052 84.374 86.8849 84.0074 86.4094C83.6507 85.9338 83.2294 85.5377 82.7438 85.2205C82.2588 84.9033 81.7385 84.7202 81.1836 84.6708C81.5303 84.2747 81.9116 83.908 82.3277 83.5709C82.7438 83.2342 83.1652 82.9122 83.5913 82.605C84.1657 82.7933 84.6712 83.0706 85.1068 83.4372C85.5529 83.8039 85.9243 84.2247 86.2215 84.7003C86.5287 85.1758 86.7612 85.6961 86.9201 86.261C87.0784 86.8155 87.1578 87.3804 87.1578 87.9549C87.1578 88.7376 87.019 89.5152 86.7417 90.2879C86.474 91.0607 86.0879 91.7592 85.5824 92.3836C85.0873 92.9976 84.4877 93.4978 83.7843 93.8844C83.091 94.2611 82.3182 94.4489 81.4661 94.4489Z" fill="white"/>
<path d="M103.891 84.4625C103.891 84.7697 103.851 85.1116 103.772 85.4882C103.703 85.8544 103.599 86.1816 103.46 86.4688L99.9975 93.8992C99.9381 94.0081 99.8539 94.0775 99.7446 94.1075C99.6456 94.1469 99.5367 94.1669 99.4179 94.1669C99.279 94.1669 99.1454 94.1422 99.0165 94.0923C98.8876 94.0428 98.7987 93.9486 98.7492 93.8103L96.431 85.6219L94.3652 93.7061C94.2858 93.8745 94.1721 94.0033 94.0233 94.0923C93.8849 94.1817 93.7261 94.2264 93.5477 94.2264C93.4189 94.2264 93.2952 94.2016 93.1763 94.1517C93.0675 94.1022 92.998 94.0081 92.9681 93.8697L90.3526 85.5177C90.3131 85.3988 90.2589 85.2752 90.1895 85.1463C90.13 85.0075 90.0506 84.8838 89.9517 84.7749C89.8623 84.656 89.7581 84.5619 89.6393 84.4925C89.5304 84.413 89.4015 84.3736 89.2531 84.3736C89.0548 84.3736 88.8717 84.4278 88.7034 84.5372C88.5446 84.6461 88.4009 84.7597 88.2721 84.8786L87.9749 84.4925C88.1237 84.2152 88.312 83.9575 88.5398 83.7197C88.7676 83.4719 89.0201 83.2541 89.2978 83.0658C89.5751 82.8775 89.8675 82.7291 90.1742 82.6198C90.4914 82.5109 90.8134 82.4567 91.1405 82.4567C91.4178 82.4567 91.6508 82.5356 91.8386 82.6944C92.027 82.8528 92.1858 83.0459 92.3142 83.2736C92.4431 83.5019 92.5472 83.7444 92.6266 84.0022C92.7155 84.2594 92.7897 84.4925 92.8492 84.7003C93.1464 85.6319 93.4388 86.5677 93.7261 87.5093C94.0233 88.4504 94.3158 89.3815 94.603 90.3031L96.0743 84.3436L95.7024 83.1548L98.199 82.3226L100.636 90.9717L102.033 87.7766C102.093 87.6282 102.142 87.4399 102.182 87.2121C102.222 86.9743 102.241 86.776 102.241 86.6177C102.241 86.0232 102.088 85.513 101.781 85.0869C101.484 84.6608 101.082 84.3189 100.577 84.0616L102.271 81.7134C102.826 81.9906 103.232 82.3673 103.489 82.8428C103.757 83.3084 103.891 83.8486 103.891 84.4625Z" fill="white"/>
<path d="M116.121 91.2095C115.775 91.6551 115.393 92.0712 114.977 92.4578C114.571 92.844 114.125 93.1811 113.639 93.4683C113.164 93.7556 112.659 93.9834 112.124 94.1517C111.589 94.3205 111.034 94.4047 110.459 94.4047C109.726 94.4047 109.052 94.2758 108.438 94.0181C107.824 93.7508 107.294 93.3889 106.848 92.9334C106.402 92.4678 106.055 91.9228 105.808 91.2984C105.56 90.6645 105.436 89.9859 105.436 89.2626C105.436 88.6682 105.52 88.0838 105.689 87.5093C105.858 86.9344 106.095 86.3946 106.402 85.8891C106.709 85.3841 107.071 84.9186 107.487 84.4925C107.913 84.0564 108.379 83.685 108.884 83.3778C109.389 83.0706 109.924 82.8328 110.489 82.6645C111.054 82.4861 111.633 82.3972 112.228 82.3972C112.644 82.3972 113.035 82.4467 113.402 82.5456C113.778 82.6445 114.11 82.8033 114.397 83.0211C114.685 83.2294 114.912 83.5019 115.081 83.8386C115.25 84.1653 115.334 84.5567 115.334 85.0127C115.334 85.3889 115.22 85.7855 114.992 86.2016C114.774 86.6177 114.482 87.0338 114.115 87.4499C113.758 87.866 113.352 88.2768 112.897 88.683C112.441 89.0796 111.975 89.451 111.499 89.7976C111.034 90.1343 110.583 90.4315 110.147 90.6893C109.711 90.947 109.33 91.1448 109.003 91.2837C109.369 91.7393 109.796 92.1111 110.281 92.3984C110.767 92.6856 111.282 92.8292 111.827 92.8292C112.173 92.8292 112.525 92.765 112.881 92.6361C113.238 92.4973 113.58 92.3242 113.907 92.1159C114.244 91.9081 114.561 91.6798 114.858 91.4325C115.165 91.1848 115.437 90.9518 115.675 90.734L116.121 91.2095ZM112.54 85.5624C112.54 85.3347 112.5 85.1164 112.421 84.9086C112.352 84.7003 112.247 84.5219 112.109 84.3736C111.97 84.2152 111.802 84.0911 111.604 84.0022C111.415 83.9028 111.197 83.8533 110.95 83.8533C110.504 83.8533 110.093 84.0117 109.716 84.3289C109.34 84.6361 109.013 85.0175 108.736 85.473C108.468 85.9291 108.255 86.4146 108.096 86.9296C107.948 87.4347 107.873 87.8807 107.873 88.2669C107.873 88.6435 107.933 89.0301 108.052 89.4262C108.171 89.8224 108.334 90.2037 108.542 90.5704C108.939 90.3526 109.369 90.0501 109.835 89.664C110.301 89.2774 110.732 88.8565 111.128 88.401C111.534 87.9349 111.871 87.4546 112.139 86.9591C112.406 86.4641 112.54 85.9985 112.54 85.5624Z" fill="white"/>
<path d="M129.986 92.3389C129.867 92.5967 129.714 92.8392 129.525 93.067C129.338 93.2948 129.129 93.4978 128.901 93.6762C128.674 93.8545 128.421 93.9981 128.143 94.1075C127.876 94.2064 127.598 94.2558 127.311 94.2558C126.528 94.2558 125.959 94.0428 125.602 93.6167C125.255 93.1811 125.082 92.5914 125.082 91.8486V91.5809C124.914 91.9176 124.72 92.2548 124.503 92.5914C124.285 92.9281 124.032 93.2306 123.745 93.4978C123.467 93.7656 123.15 93.9834 122.794 94.1517C122.447 94.3205 122.056 94.4047 121.619 94.4047C120.956 94.4047 120.371 94.2758 119.866 94.0181C119.371 93.7508 118.954 93.3989 118.618 92.9628C118.281 92.5173 118.023 92.0022 117.845 91.4173C117.677 90.8329 117.593 90.219 117.593 89.5746C117.593 88.7424 117.721 87.9054 117.979 87.0632C118.236 86.2211 118.613 85.4583 119.108 84.7749C119.604 84.0911 120.213 83.5361 120.936 83.1105C121.659 82.6745 122.486 82.4567 123.418 82.4567C123.992 82.4567 124.547 82.595 125.082 82.8728V73.748L127.831 72.7969V91.9228C127.831 92.1211 127.876 92.3042 127.965 92.4726C128.064 92.6309 128.223 92.7103 128.441 92.7103C128.668 92.7103 128.881 92.6214 129.08 92.4431C129.278 92.2548 129.436 92.0664 129.555 91.8781L129.986 92.3389ZM125.082 87.866V84.7003C124.855 84.4725 124.597 84.2842 124.31 84.1358C124.032 83.987 123.725 83.9128 123.388 83.9128C122.804 83.9128 122.308 84.0711 121.902 84.3883C121.496 84.7055 121.164 85.1016 120.906 85.5772C120.649 86.0527 120.461 86.5677 120.342 87.1227C120.223 87.6677 120.163 88.1779 120.163 88.6535C120.163 89.0301 120.198 89.4557 120.267 89.9313C120.346 90.3973 120.475 90.8381 120.654 91.2542C120.842 91.6603 121.084 92.007 121.382 92.2942C121.689 92.5715 122.07 92.7103 122.526 92.7103C122.893 92.7103 123.21 92.6309 123.477 92.4726C123.755 92.3042 123.988 92.0912 124.175 91.8334C124.364 91.5662 124.517 91.2637 124.636 90.927C124.755 90.5804 124.845 90.2285 124.904 89.8718C124.973 89.5152 125.018 89.1637 125.038 88.8171C125.067 88.4604 125.082 88.1432 125.082 87.866Z" fill="white"/>
<path d="M152.545 72.2919C152.228 72.7675 151.851 73.213 151.416 73.6292C150.98 74.0453 150.499 74.4119 149.974 74.7291C149.459 75.0458 148.914 75.2988 148.339 75.4866C147.765 75.665 147.19 75.7544 146.615 75.7544L146.274 75.7838C145.897 76.2594 145.61 76.7202 145.412 77.1662C145.214 77.6118 145.115 78.1368 145.115 78.7412V88.2374C145.115 89.5551 144.832 90.7287 144.267 91.7592C143.713 92.7798 142.891 93.6614 141.801 94.4047L141.31 93.8397C141.479 93.6514 141.612 93.4384 141.711 93.2006C141.811 92.9533 141.885 92.7003 141.934 92.4431C141.984 92.1853 142.014 91.9276 142.024 91.6703C142.043 91.4026 142.053 91.1501 142.053 90.9123V80.4651C142.053 79.9995 142.147 79.5487 142.336 79.1126C142.534 78.6671 142.781 78.2457 143.078 77.8496C143.376 77.4535 143.703 77.0821 144.059 76.7349C144.426 76.3883 144.778 76.0715 145.115 75.7838L140.196 75.7544C139.819 75.7544 139.482 75.7938 139.185 75.8732C138.898 75.9427 138.63 76.0463 138.382 76.1852C138.135 76.3241 137.897 76.4972 137.669 76.7054C137.441 76.9133 137.209 77.1563 136.971 77.4335L136.54 76.9727C136.867 76.5271 137.233 76.0563 137.64 75.5613C138.056 75.0658 138.501 74.615 138.977 74.2088C139.462 73.8027 139.978 73.4656 140.522 73.1983C141.077 72.9306 141.657 72.7969 142.261 72.7969H148.681C148.939 72.7969 149.226 72.7822 149.543 72.7522C149.87 72.7228 150.197 72.6733 150.524 72.6039C150.851 72.5344 151.158 72.4455 151.445 72.3361C151.742 72.2173 151.99 72.0689 152.188 71.8906L152.545 72.2919Z" fill="white"/>
<path d="M163.17 91.2095C162.823 91.6551 162.442 92.0712 162.026 92.4578C161.62 92.844 161.174 93.1811 160.689 93.4683C160.213 93.7556 159.708 93.9834 159.173 94.1517C158.638 94.3205 158.083 94.4047 157.508 94.4047C156.775 94.4047 156.102 94.2758 155.487 94.0181C154.873 93.7508 154.343 93.3889 153.897 92.9334C153.451 92.4678 153.105 91.9228 152.857 91.2984C152.609 90.6645 152.486 89.9859 152.486 89.2626C152.486 88.6682 152.57 88.0838 152.738 87.5093C152.906 86.9344 153.144 86.3946 153.451 85.8891C153.759 85.3841 154.12 84.9186 154.536 84.4925C154.962 84.0564 155.428 83.685 155.933 83.3778C156.438 83.0706 156.973 82.8328 157.538 82.6645C158.103 82.4861 158.682 82.3972 159.277 82.3972C159.693 82.3972 160.084 82.4467 160.451 82.5456C160.827 82.6445 161.159 82.8033 161.446 83.0211C161.734 83.2294 161.962 83.5019 162.13 83.8386C162.298 84.1653 162.383 84.5567 162.383 85.0127C162.383 85.3889 162.269 85.7855 162.041 86.2016C161.823 86.6177 161.531 87.0338 161.164 87.4499C160.808 87.866 160.401 88.2768 159.945 88.683C159.49 89.0796 159.024 89.451 158.549 89.7976C158.083 90.1343 157.632 90.4315 157.196 90.6893C156.76 90.947 156.379 91.1448 156.052 91.2837C156.419 91.7393 156.844 92.1111 157.33 92.3984C157.815 92.6856 158.331 92.8292 158.875 92.8292C159.222 92.8292 159.574 92.765 159.931 92.6361C160.287 92.4973 160.629 92.3242 160.956 92.1159C161.293 91.9081 161.61 91.6798 161.907 91.4325C162.214 91.1848 162.487 90.9518 162.725 90.734L163.17 91.2095ZM159.589 85.5624C159.589 85.3347 159.549 85.1164 159.47 84.9086C159.4 84.7003 159.297 84.5219 159.158 84.3736C159.019 84.2152 158.851 84.0911 158.652 84.0022C158.465 83.9028 158.246 83.8533 157.999 83.8533C157.553 83.8533 157.142 84.0117 156.765 84.3289C156.389 84.6361 156.062 85.0175 155.784 85.473C155.517 85.9291 155.304 86.4146 155.145 86.9296C154.997 87.4347 154.923 87.8807 154.923 88.2669C154.923 88.6435 154.982 89.0301 155.101 89.4262C155.22 89.8224 155.383 90.2037 155.591 90.5704C155.988 90.3526 156.419 90.0501 156.884 89.664C157.35 89.2774 157.781 88.8565 158.177 88.401C158.583 87.9349 158.92 87.4546 159.187 86.9591C159.455 86.4641 159.589 85.9985 159.589 85.5624Z" fill="white"/>
<path d="M176.054 82.9022L174.94 85.4882C174.722 85.3099 174.479 85.1563 174.212 85.0274C173.954 84.8886 173.687 84.8192 173.409 84.8192C173.191 84.8192 172.983 84.8639 172.785 84.9533C172.597 85.0422 172.424 85.1611 172.265 85.3099C172.106 85.4583 171.968 85.6266 171.849 85.8149C171.73 85.9933 171.631 86.1716 171.552 86.3499L171.254 87.1969C171.463 87.6329 171.666 88.0491 171.864 88.4452C172.032 88.7823 172.205 89.1238 172.384 89.4709C172.562 89.8076 172.711 90.0749 172.83 90.2732C173.018 90.5604 173.206 90.8576 173.394 91.1648C173.583 91.462 173.791 91.7345 174.019 91.9823C174.118 92.0912 174.236 92.1654 174.375 92.2053C174.524 92.2348 174.658 92.2495 174.777 92.2495C174.965 92.2495 175.143 92.2248 175.312 92.1753C175.48 92.1259 175.638 92.0617 175.787 91.9823L176.159 92.4578C176.02 92.6756 175.851 92.8939 175.653 93.1117C175.455 93.3295 175.237 93.5278 174.999 93.7061C174.771 93.8844 174.524 94.0281 174.256 94.137C173.999 94.2558 173.736 94.3153 173.469 94.3153C173.231 94.3153 173.018 94.2758 172.83 94.1964C172.651 94.127 172.488 94.0328 172.339 93.9139C172.191 93.7855 172.052 93.6367 171.923 93.4683C171.795 93.3 171.661 93.1264 171.522 92.9481C171.413 92.7798 171.294 92.5767 171.165 92.3389C171.046 92.0912 170.923 91.8387 170.794 91.5809C170.665 91.3232 170.536 91.0759 170.407 90.8381C170.278 90.5904 170.155 90.3821 170.036 90.2137C169.987 90.3821 169.942 90.5504 169.902 90.7192C169.862 90.8576 169.818 91.0012 169.768 91.1501C169.719 91.2984 169.675 91.4126 169.635 91.492C169.486 91.8087 169.298 92.1359 169.07 92.4726C168.842 92.8092 168.579 93.1164 168.282 93.3942C167.995 93.6614 167.678 93.8844 167.331 94.0628C166.984 94.2311 166.618 94.3153 166.232 94.3153C165.885 94.3153 165.548 94.2459 165.221 94.1075C164.894 93.9786 164.592 93.805 164.315 93.5872L165.251 91.1201C165.568 91.3184 165.914 91.4967 166.291 91.6551C166.668 91.8039 167.044 91.8781 167.42 91.8781C167.539 91.8781 167.663 91.8681 167.792 91.8486C167.921 91.8187 168.044 91.7792 168.163 91.7298C168.292 91.6703 168.406 91.6009 168.505 91.5215C168.605 91.4325 168.679 91.3284 168.728 91.2095C168.798 91.0806 168.872 90.9123 168.951 90.704C169.03 90.4962 169.11 90.2879 169.189 90.0801C169.278 89.8423 169.367 89.5898 169.456 89.3221L166.662 84.8491C166.534 84.7003 166.375 84.5814 166.187 84.4925C166.009 84.3935 165.82 84.3436 165.622 84.3436C165.454 84.3436 165.295 84.3783 165.147 84.4478C164.998 84.5072 164.854 84.5914 164.716 84.7003L164.315 84.1805C164.453 83.9722 164.617 83.7692 164.805 83.5709C165.003 83.363 165.216 83.1795 165.444 83.0211C165.672 82.8528 165.914 82.7192 166.172 82.6198C166.43 82.5109 166.692 82.4567 166.96 82.4567C167.287 82.4567 167.589 82.5408 167.866 82.7092C168.144 82.8675 168.401 83.0658 168.639 83.3036C168.877 83.5414 169.095 83.7991 169.293 84.0764C169.491 84.3536 169.669 84.6113 169.828 84.8491C169.907 84.958 169.991 85.0969 170.081 85.2652C170.18 85.4236 170.274 85.5824 170.363 85.7408C170.472 85.9191 170.576 86.1122 170.675 86.3204C170.774 86.0827 170.878 85.8449 170.987 85.6071C171.076 85.4088 171.165 85.2058 171.254 84.9975C171.354 84.7797 171.443 84.5914 171.522 84.433C171.67 84.1558 171.839 83.898 172.027 83.6603C172.215 83.4225 172.424 83.2142 172.651 83.0359C172.889 82.8575 173.147 82.7192 173.424 82.6198C173.701 82.5109 174.004 82.4567 174.331 82.4567C174.638 82.4567 174.935 82.4961 175.222 82.5755C175.509 82.6545 175.787 82.7634 176.054 82.9022Z" fill="white"/>
<path d="M183.693 92.3684C183.465 92.8539 183.202 93.2253 182.905 93.4831C182.608 93.7408 182.316 93.9291 182.029 94.048C181.702 94.1864 181.365 94.2658 181.018 94.2858C180.572 94.2858 180.206 94.2164 179.918 94.0775C179.641 93.9387 179.418 93.7556 179.25 93.5278C179.091 93.3 178.977 93.0423 178.908 92.755C178.848 92.4678 178.819 92.1753 178.819 91.8781V84.0911H177.243L177.883 82.605H178.819V77.3446L181.538 76.3935V82.605H184.362L183.753 84.0911H181.538V91.9523C181.538 92.1901 181.593 92.3784 181.702 92.5173C181.811 92.6561 181.949 92.7303 182.118 92.7403C182.286 92.7403 182.474 92.6756 182.683 92.5467C182.89 92.4183 183.094 92.2101 183.292 91.9228L183.693 92.3684Z" fill="white"/>
<path d="M192.847 90.0059C192.847 90.6198 192.733 91.1948 192.505 91.7298C192.278 92.2647 191.966 92.7303 191.569 93.1264C191.183 93.5226 190.717 93.835 190.172 94.0628C189.637 94.2906 189.058 94.4047 188.433 94.4047C188.166 94.4047 187.874 94.38 187.557 94.33C187.25 94.2806 186.943 94.2064 186.635 94.1075C186.328 94.0081 186.036 93.8844 185.758 93.7356C185.491 93.5872 185.268 93.4089 185.09 93.2006L186.844 90.9123C186.963 91.1006 187.106 91.3084 187.274 91.5362C187.453 91.7545 187.646 91.9575 187.854 92.1459C188.072 92.3337 188.3 92.4925 188.538 92.6214C188.785 92.7403 189.033 92.7997 189.281 92.7997C189.568 92.7997 189.835 92.7498 190.083 92.6509C190.341 92.552 190.564 92.4131 190.752 92.2348C190.94 92.0465 191.089 91.8287 191.198 91.5809C191.307 91.3332 191.361 91.0607 191.361 90.7635C191.361 90.3673 191.222 90.0059 190.945 89.6787C190.677 89.3421 190.356 89.0201 189.979 88.7129C189.613 88.3957 189.226 88.0738 188.82 87.7471C188.424 87.4099 188.102 87.0433 187.854 86.6471L186.309 88.906L185.729 88.4751L187.512 86.008C187.373 85.7208 187.265 85.4188 187.185 85.1016C187.106 84.7844 187.066 84.4677 187.066 84.1505C187.066 83.8833 187.111 83.6008 187.2 83.3036C187.289 83.0064 187.418 82.7339 187.586 82.4861C187.755 82.2384 187.958 82.0353 188.196 81.877C188.443 81.7086 188.726 81.6245 189.043 81.6245C189.35 81.6245 189.608 81.7186 189.816 81.9065C190.034 82.0948 190.142 82.3573 190.142 82.6944C190.142 82.8728 190.113 83.0511 190.054 83.2294C189.994 83.4077 189.919 83.5861 189.831 83.7644C189.741 83.9427 189.642 84.1158 189.533 84.2842C189.424 84.443 189.32 84.5914 189.221 84.7302C189.459 85.0669 189.716 85.3594 189.994 85.6071C190.271 85.8544 190.544 86.0874 190.811 86.3052C191.079 86.5235 191.337 86.7413 191.584 86.9591C191.832 87.1774 192.045 87.4251 192.223 87.7024C192.411 87.9796 192.56 88.3016 192.669 88.6682C192.788 89.0349 192.847 89.4804 192.847 90.0059ZM189.474 82.9617C189.474 82.8228 189.424 82.7192 189.325 82.6497C189.236 82.5803 189.132 82.5456 189.013 82.5456C188.845 82.5456 188.726 82.605 188.656 82.7239C188.587 82.8328 188.552 82.9569 188.552 83.0953C188.552 83.2936 188.582 83.4867 188.642 83.675C188.711 83.8633 188.795 84.0416 188.894 84.21C188.934 84.1406 188.984 84.0516 189.043 83.9427C189.112 83.8334 189.177 83.7197 189.236 83.6008C189.306 83.4719 189.36 83.3531 189.4 83.2442C189.449 83.1253 189.474 83.0311 189.474 82.9617Z" fill="white"/>
</g>
<defs>
<clipPath id="clip0_4_3253">
<rect width="175" height="79.4158" fill="white" transform="translate(18 17)"/>
</clipPath>
</defs>
</svg>
