<svg width="44" height="40" viewBox="0 0 44 40" fill="none" xmlns="http://www.w3.org/2000/svg">
<g clip-path="url(#clip0_34_264)">
<path d="M42.35 0H29.15C28.2436 0 26.9742 0.5975 26.334 1.325L9.96821 19.9225C9.65962 20.2748 9.48637 20.7517 9.48637 21.2488C9.48637 21.7458 9.65962 22.2227 9.96821 22.575L24.134 38.6725C24.444 39.0232 24.8637 39.22 25.3011 39.22C25.7385 39.22 26.1582 39.0232 26.4682 38.6725L42.834 20.075C43.4764 19.345 44 17.905 44 16.875V1.875C43.9988 1.37812 43.8246 0.901978 43.5154 0.550633C43.2063 0.199288 42.7873 0.00131973 42.35 0V0ZM34.1 15C33.6665 14.9998 33.2373 14.9026 32.8368 14.714C32.4364 14.5253 32.0725 14.2489 31.7661 13.9004C31.4597 13.5519 31.2166 13.1383 31.0509 12.6831C30.8851 12.228 30.7999 11.7401 30.8 11.2475C30.8002 10.7549 30.8857 10.2671 31.0517 9.81205C31.2177 9.35699 31.461 8.94355 31.7677 8.59533C32.0743 8.24711 32.4383 7.97093 32.8388 7.78257C33.2394 7.5942 33.6687 7.49734 34.1022 7.4975C34.9777 7.49783 35.8172 7.89337 36.4361 8.5971C37.055 9.30083 37.4025 10.2551 37.4022 11.25C37.4019 12.2449 37.0538 13.1989 36.4346 13.9022C35.8153 14.6054 34.9755 15.0003 34.1 15Z" fill="#3D3E48"/>
<path d="M4.4 21.25L23.1 0H20.35C19.4436 0 18.1742 0.5975 17.534 1.325L1.1682 19.9225C0.859613 20.2748 0.686371 20.7517 0.686371 21.2488C0.686371 21.7458 0.859613 22.2227 1.1682 22.575L15.334 38.6725C15.644 39.0232 16.0637 39.22 16.5011 39.22C16.9385 39.22 17.3582 39.0232 17.6682 38.6725L18.7022 37.4975L4.4022 21.2475L4.4 21.25Z" fill="#3D3E48"/>
</g>
<defs>
<clipPath id="clip0_34_264">
<rect width="44" height="40" fill="white"/>
</clipPath>
</defs>
</svg>
