<svg width="44" height="44" viewBox="0 0 44 44" fill="none" xmlns="http://www.w3.org/2000/svg">
<path d="M12.8333 14.6667C11.9167 14.6667 10.0833 15.2167 10.0833 17.4167C10.0833 19.6167 11.9167 20.1667 12.8333 20.1667M3.66667 31.1667V36.6667C3.66667 37.6391 4.05298 38.5718 4.74061 39.2594C5.42825 39.947 6.36088 40.3333 7.33334 40.3333H27.5M3.66667 31.1667V11C3.66667 10.0275 4.05298 9.09491 4.74061 8.40727C5.42825 7.71964 6.36088 7.33333 7.33334 7.33333H12.8333M3.66667 31.1667C6.23884 30.7377 10.3345 30.6295 14.5658 31.6122M27.5 40.3333H33C33.9725 40.3333 34.9051 39.947 35.5927 39.2594C36.2804 38.5718 36.6667 37.6391 36.6667 36.6667V25.6667M27.5 40.3333C24.376 35.2587 19.3838 32.7287 14.5658 31.6122M14.5658 31.6122C16.5733 29.2875 19.5708 27.1205 23.9085 25.6667M18.3333 18.3333V9.16666C18.3333 8.68043 18.5265 8.21412 18.8703 7.8703C19.2141 7.52649 19.6804 7.33333 20.1667 7.33333H22L25.6667 3.66666H33L36.6667 7.33333H38.5C38.9862 7.33333 39.4526 7.52649 39.7964 7.8703C40.1402 8.21412 40.3333 8.68043 40.3333 9.16666V18.3333C40.3333 18.8196 40.1402 19.2859 39.7964 19.6297C39.4526 19.9735 38.9862 20.1667 38.5 20.1667H20.1667C19.6804 20.1667 19.2141 19.9735 18.8703 19.6297C18.5265 19.2859 18.3333 18.8196 18.3333 18.3333Z" stroke="#3D3E48" stroke-width="2" stroke-linecap="round" stroke-linejoin="round"/>
<path d="M29.3333 14.6667C30.3459 14.6667 31.1667 13.8459 31.1667 12.8333C31.1667 11.8208 30.3459 11 29.3333 11C28.3208 11 27.5 11.8208 27.5 12.8333C27.5 13.8459 28.3208 14.6667 29.3333 14.6667Z" stroke="#3D3E48" stroke-width="2" stroke-linecap="round" stroke-linejoin="round"/>
</svg>
